<?xml version="1.0" encoding="UTF-8"?>
<svg version="1.1" xmlns="http://www.w3.org/2000/svg" width="768" height="800">
<path d="M0 0 C23.70271819 -0.84875602 44.7889784 7.21993124 65.3671875 18.1953125 C66.34123535 18.71134033 66.34123535 18.71134033 67.33496094 19.23779297 C83.56202912 27.90057576 98.65704572 37.91951979 112.3671875 50.1953125 C113.2128125 50.93136719 114.0584375 51.66742188 114.9296875 52.42578125 C131.04487034 66.60404307 144.12265568 81.92641883 155.3671875 100.1953125 C158.95191961 96.66726749 158.95191961 96.66726749 162.1796875 92.8203125 C184.08420765 66.53488832 222.51099016 53.85914655 255.41015625 50.796875 C259.39553281 50.50106972 263.37325752 50.30666742 267.3671875 50.1953125 C268.10453125 50.17339844 268.841875 50.15148438 269.6015625 50.12890625 C317.94378432 48.91223959 375.60231489 56.89585759 414.3671875 88.1953125 C415.18050537 88.84258301 415.18050537 88.84258301 416.01025391 89.50292969 C446.81530259 114.18475571 463.31243281 151.39223107 468.15234375 190.06640625 C472.01516601 225.40604991 464.2692814 258.8284548 450.3671875 291.1953125 C450.05555664 291.9284668 449.74392578 292.66162109 449.42285156 293.41699219 C439.71561929 315.9850232 425.33852757 335.57039066 408.3671875 353.1953125 C407.81095703 353.77345703 407.25472656 354.35160156 406.68164062 354.94726562 C399.62501703 362.23781044 392.51287618 369.11472799 384.3671875 375.1953125 C383.04643329 376.19733472 381.72616115 377.19999252 380.40625 378.203125 C374.48558603 382.68446679 368.58902193 387.13759439 362.3671875 391.1953125 C362.88925781 391.42081787 363.41132812 391.64632324 363.94921875 391.87866211 C381.32618981 399.42783003 397.22238584 407.78510258 412.3671875 419.1953125 C413.19089844 419.7934375 414.01460937 420.3915625 414.86328125 421.0078125 C434.04462753 435.49894763 448.37701933 454.02100027 459.3671875 475.1953125 C459.83640625 476.09121094 460.305625 476.98710937 460.7890625 477.91015625 C483.63903333 524.8712976 489.58040389 595.28494879 472.3671875 645.1953125 C462.67632934 671.60456555 445.85306396 692.78966493 422.3671875 708.1953125 C421.54726318 708.74243896 420.72733887 709.28956543 419.88256836 709.85327148 C413.49605243 714.03456003 407.01351313 717.50612317 400.0546875 720.6328125 C399.01852295 721.10090332 397.9823584 721.56899414 396.91479492 722.05126953 C379.82562486 729.65598268 362.68608772 735.4147527 344.3671875 739.1953125 C343.60583496 739.35370605 342.84448242 739.51209961 342.06005859 739.67529297 C328.99003245 742.35506659 316.39795697 743.43201343 303.0546875 743.4453125 C302.34987244 743.44631958 301.64505737 743.44732666 300.91888428 743.44836426 C288.85398984 743.43676044 277.21426113 742.54168916 265.3671875 740.1953125 C264.60873535 740.05077637 263.8502832 739.90624023 263.06884766 739.75732422 C229.59032449 733.27135417 198.99948714 719.30531024 169.11499023 703.22900391 C168.03713257 702.64965088 168.03713257 702.64965088 166.9375 702.05859375 C166.31633301 701.72126221 165.69516602 701.38393066 165.05517578 701.03637695 C163.19364606 700.05966217 163.19364606 700.05966217 160.3671875 699.1953125 C160.14160156 700.00613281 159.91601562 700.81695313 159.68359375 701.65234375 C158.0386252 706.07960333 155.78244056 709.87597282 153.3046875 713.8828125 C152.56387939 715.08200317 152.56387939 715.08200317 151.80810547 716.30541992 C141.52189687 732.68943087 127.9787994 745.92693109 112.3671875 757.1953125 C111.10648437 758.11376953 111.10648437 758.11376953 109.8203125 759.05078125 C107.36140375 760.80657067 104.87428329 762.50905844 102.3671875 764.1953125 C101.32175781 764.90429688 100.27632813 765.61328125 99.19921875 766.34375 C90.6135932 772.07242826 81.71813695 776.83888673 72.3671875 781.1953125 C71.75842773 781.48035645 71.14966797 781.76540039 70.52246094 782.05908203 C62.01705038 785.99591188 53.4671713 788.98480813 44.3671875 791.1953125 C43.66400391 791.37868164 42.96082031 791.56205078 42.23632812 791.75097656 C-0.12886698 802.57112795 -49.32058271 793.10388815 -86.6328125 771.1953125 C-94.85156502 766.16443975 -102.26559974 760.38703002 -109.6328125 754.1953125 C-110.49648437 753.51984375 -111.36015625 752.844375 -112.25 752.1484375 C-115.84155955 749.20453623 -118.64404354 745.73433932 -121.6328125 742.1953125 C-122.42171875 741.29425781 -123.210625 740.39320313 -124.0234375 739.46484375 C-130.04411468 732.47457899 -135.10126555 725.25787887 -139.6328125 717.1953125 C-140.00293457 716.53869629 -140.37305664 715.88208008 -140.75439453 715.20556641 C-166.67406013 668.7720572 -171.59120722 615.98845873 -157.4765625 564.859375 C-154.77008012 556.13645545 -150.85000885 548.1525331 -146.62158203 540.09228516 C-145.08585811 537.14597037 -143.61169323 534.17055482 -142.1328125 531.1953125 C-141.29947917 529.52864583 -140.46614583 527.86197917 -139.6328125 526.1953125 C-140.21957764 526.21102295 -140.80634277 526.2267334 -141.41088867 526.24291992 C-176.26086621 527.04472991 -208.55228178 520.05006328 -236.5078125 498.3203125 C-237.42844482 497.60536621 -237.42844482 497.60536621 -238.36767578 496.87597656 C-239.83217628 495.70049445 -241.2388758 494.45366873 -242.6328125 493.1953125 C-242.6328125 492.5353125 -242.6328125 491.8753125 -242.6328125 491.1953125 C-243.19613281 490.96328125 -243.75945312 490.73125 -244.33984375 490.4921875 C-261.40237762 480.84182763 -272.21557091 454.15300585 -277.27734375 436.46875 C-289.85862895 389.22437684 -281.83931702 340.11643198 -257.7578125 298.0078125 C-248.97290363 283.88583534 -237.50597992 270.70445919 -224.6328125 260.1953125 C-223.52938389 259.25717342 -222.42658144 258.31829761 -221.32421875 257.37890625 C-194.44032017 234.73176515 -165.03889636 219.43003172 -131.66381836 208.91625977 C-129.66467838 208.37045434 -129.66467838 208.37045434 -128.6328125 207.1953125 C-128.88973795 205.08376594 -129.22630086 202.98186091 -129.59375 200.88671875 C-129.7037735 200.24596909 -129.813797 199.60521942 -129.92715454 198.9450531 C-130.28203139 196.88167266 -130.64433294 194.81969357 -131.0078125 192.7578125 C-135.16676467 169.01948809 -137.61595297 143.84540852 -131.6328125 120.1953125 C-131.34277344 119.01839844 -131.05273438 117.84148437 -130.75390625 116.62890625 C-119.71320861 75.28403434 -93.06177253 38.91931788 -55.859375 17.37109375 C-38.58419996 7.75988497 -19.82901857 1.06607627 0 0 Z " fill="#2C2C2C" transform="translate(285.6328125,1.8046875)"/>
</svg>
