<svg xmlns="http://www.w3.org/2000/svg" xmlns:xlink="http://www.w3.org/1999/xlink" preserveAspectRatio="xMidYMid meet" version="1.0" viewBox="0.0 0.0 500.0 500.0" zoomAndPan="magnify" style="fill: rgb(0, 0, 0);" original_string_length="673" width="297.44557465038764px" height="297.44557465038764px"><g id="__id16_s07zdtnfge"><path d="M337.6,87.6C337.6,136,250,250,250,250s-87.6-114-87.6-162.4S201.6,0,250,0S337.6,39.2,337.6,87.6z M500,250 c0-48.4-39.2-87.6-87.6-87.6S250,250,250,250s114,87.6,162.4,87.6S500,298.4,500,250z M250,500c48.4,0,87.6-39.2,87.6-87.6 S250,250,250,250s-87.6,114-87.6,162.4S201.6,500,250,500z M0,250c0,48.4,39.2,87.6,87.6,87.6S250,250,250,250s-114-87.6-162.4-87.6 S0,201.6,0,250z" style="fill: rgb(215, 127, 209);"/></g></svg>