<?xml version="1.0" encoding="UTF-8"?>
<svg version="1.1" xmlns="http://www.w3.org/2000/svg" width="352" height="352">
<path d="M0 0 C1.0094165 -0.0112793 2.01883301 -0.02255859 3.05883789 -0.03417969 C4.16026123 -0.02608276 5.26168457 -0.01798584 6.39648438 -0.00964355 C7.56107178 -0.01665283 8.72565918 -0.02366211 9.92553711 -0.03088379 C13.78067771 -0.04850975 17.63508612 -0.03682384 21.49023438 -0.02331543 C24.1653739 -0.026009 26.84049107 -0.02988396 29.515625 -0.03491211 C35.12442987 -0.0421874 40.733024 -0.03260414 46.34179688 -0.0135498 C52.82441344 0.008219 59.30652679 0.00116752 65.78913116 -0.02085543 C71.35700027 -0.03901302 76.92471797 -0.04156609 82.49260712 -0.03110075 C85.81719107 -0.02486765 89.14148689 -0.02559741 92.46606445 -0.0372467 C96.17238595 -0.04738291 99.87773545 -0.03195028 103.58398438 -0.00964355 C104.68540771 -0.01774048 105.78683105 -0.0258374 106.92163086 -0.03417969 C108.43575562 -0.01726074 108.43575562 -0.01726074 109.98046875 0 C110.85650757 0.0015081 111.73254639 0.0030162 112.63513184 0.00457001 C115.78298929 0.67737294 116.99542 2.03609591 118.99023438 4.50793457 C119.5078125 7.10168457 119.5078125 7.10168457 119.52148438 10.00793457 C119.52921875 11.58574707 119.52921875 11.58574707 119.53710938 13.19543457 C119.52164063 14.28855957 119.50617188 15.38168457 119.49023438 16.50793457 C119.5134375 18.14762207 119.5134375 18.14762207 119.53710938 19.82043457 C119.53195313 20.87230957 119.52679688 21.92418457 119.52148438 23.00793457 C119.51697266 23.96699707 119.51246094 24.92605957 119.5078125 25.91418457 C118.79230823 29.49980596 118.00753108 30.38400919 114.99023438 32.50793457 C111.32269535 33.12160594 107.67802391 33.05063994 103.96704102 33.02209473 C102.28109077 33.03278236 102.28109077 33.03278236 100.56108093 33.04368591 C96.84067336 33.06300608 93.12083191 33.05467947 89.40039062 33.04699707 C86.81732855 33.0568991 84.23427354 33.06883846 81.65122986 33.08273315 C75.54094124 33.11183734 69.43083732 33.12468697 63.32048649 33.12830961 C51.73422274 33.13535039 40.14812811 33.17071443 28.56197929 33.22175217 C24.7546536 33.23435879 20.94749437 33.23357719 17.14015198 33.23147583 C14.80770743 33.23805585 12.47526403 33.24506205 10.14282227 33.25256348 C9.08239716 33.24843948 8.02197205 33.24431549 6.92941284 33.24006653 C5.46371101 33.24814079 5.46371101 33.24814079 3.96839905 33.25637817 C3.1227794 33.25671366 2.27715975 33.25704914 1.40591526 33.25739479 C-1.38593882 33.54694897 -3.49535091 34.27052142 -6.00976562 35.50793457 C-8.48356348 39.56138648 -8.31087836 43.89075068 -8.25976562 48.50793457 C-8.2675 49.20660645 -8.27523437 49.90527832 -8.28320312 50.62512207 C-8.26800733 54.65200684 -8.13215893 58.03027807 -6.00976562 61.50793457 C-2.59241086 63.18970953 0.18177631 63.7579887 3.96839905 63.75949097 C4.9455336 63.76487381 5.92266815 63.77025665 6.92941284 63.77580261 C8.52005051 63.76961662 8.52005051 63.76961662 10.14282227 63.76330566 C11.26854141 63.76692612 12.39426056 63.77054657 13.55409241 63.77427673 C15.99583692 63.7811651 18.43759681 63.78367722 20.87935066 63.78232956 C24.74132352 63.78136497 28.60301758 63.79429775 32.46495056 63.81130981 C43.44414203 63.85761152 54.42330233 63.88228467 65.40258789 63.88879395 C72.11929997 63.89294408 78.83567852 63.91799058 85.55230522 63.95412064 C88.11399014 63.96394072 90.67571513 63.96623863 93.23741341 63.96094894 C96.81427564 63.95390756 100.39026167 63.97110036 103.96704102 63.99377441 C105.02949036 63.98560196 106.0919397 63.9774295 107.18658447 63.9690094 C114.26746694 64.04911592 114.26746694 64.04911592 117.64683533 66.19436646 C119.28633292 69.01786805 119.497157 70.77833119 119.5078125 74.03918457 C119.52042114 75.14713379 119.53302979 76.25508301 119.54602051 77.39660645 C119.53792358 78.58834473 119.52982666 79.78008301 119.52148438 81.00793457 C119.52531128 82.2357666 119.52913818 83.46359863 119.53308105 84.7286377 C119.53580279 87.32434916 119.52842349 89.92008793 119.51171875 92.51574707 C119.49031512 96.49293056 119.511514 100.46830739 119.53710938 104.44543457 C119.53446615 106.9662719 119.52934128 109.4871081 119.52148438 112.00793457 C119.5295813 113.19967285 119.53767822 114.39141113 119.54602051 115.6192627 C119.52710754 117.28118652 119.52710754 117.28118652 119.5078125 118.97668457 C119.50463013 119.95057129 119.50144775 120.92445801 119.49816895 121.92785645 C118.84735847 125.23367962 117.58638859 126.42882151 114.99023438 128.50793457 C112.77954102 129.02209473 112.77954102 129.02209473 110.40039062 129.04699707 C109.53349609 129.0702002 108.66660156 129.09340332 107.7734375 129.11730957 C106.87560547 129.12246582 105.97777344 129.12762207 105.05273438 129.13293457 C97.1852306 128.92286172 97.1852306 128.92286172 89.99023438 131.50793457 C86.7361437 136.54684468 87.63287794 143.49824802 87.59960938 149.2911377 C87.57640625 150.15803223 87.55320313 151.02492676 87.52929688 151.91809082 C87.5210791 152.70321045 87.51286133 153.48833008 87.50439453 154.29724121 C86.78870936 157.3744156 85.40024936 158.50723327 82.99023438 160.50793457 C80.63513184 161.01129913 80.63513184 161.01129913 77.98046875 161.01586914 C76.97105225 161.02714844 75.96163574 161.03842773 74.92163086 161.05004883 C73.26949585 161.03790344 73.26949585 161.03790344 71.58398438 161.0255127 C70.41939697 161.03252197 69.25480957 161.03953125 68.05493164 161.04675293 C64.19979104 161.06437889 60.34538263 161.05269298 56.49023438 161.03918457 C53.81509485 161.04187814 51.13997768 161.0457531 48.46484375 161.05078125 C42.85603888 161.05805654 37.24744475 161.04847328 31.63867188 161.02941895 C25.15605531 161.00765014 18.67394196 161.01470162 12.19133759 161.03672457 C6.62346848 161.05488216 1.05575078 161.05743523 -4.51213837 161.04696989 C-7.83672232 161.04073679 -11.16101814 161.04146655 -14.4855957 161.05311584 C-18.1919172 161.06325205 -21.8972667 161.04781942 -25.60351562 161.0255127 C-26.70493896 161.03360962 -27.8063623 161.04170654 -28.94116211 161.05004883 C-29.95057861 161.03876953 -30.95999512 161.02749023 -32 161.01586914 C-32.87603882 161.01436104 -33.75207764 161.01285294 -34.65466309 161.01129913 C-37.80252054 160.3384962 -39.01495125 158.97977323 -41.00976562 156.50793457 C-41.52734375 153.91418457 -41.52734375 153.91418457 -41.54101562 151.00793457 C-41.54617187 149.95605957 -41.55132812 148.90418457 -41.55664062 147.82043457 C-41.5334375 146.18074707 -41.5334375 146.18074707 -41.50976562 144.50793457 C-41.52523437 143.41480957 -41.54070313 142.32168457 -41.55664062 141.19543457 C-41.54890625 139.61762207 -41.54890625 139.61762207 -41.54101562 138.00793457 C-41.53650391 137.04887207 -41.53199219 136.08980957 -41.52734375 135.10168457 C-40.81183948 131.51606318 -40.02706233 130.63185995 -37.00976562 128.50793457 C-33.3422266 127.8942632 -29.69755516 127.9652292 -25.98657227 127.99377441 C-24.30062202 127.98308678 -24.30062202 127.98308678 -22.58061218 127.97218323 C-18.86020461 127.95286306 -15.14036316 127.96118967 -11.41992188 127.96887207 C-8.8368598 127.95897004 -6.25380479 127.94703069 -3.67076111 127.93313599 C2.43952751 127.9040318 8.54963143 127.89118217 14.65998226 127.88755953 C26.24624601 127.88051875 37.83234064 127.84515471 49.41848946 127.79411697 C53.22581515 127.78151035 57.03297438 127.78229195 60.84031677 127.78439331 C63.17276132 127.77781329 65.50520472 127.77080709 67.83764648 127.76330566 C68.89807159 127.76742966 69.9584967 127.77155365 71.05105591 127.77580261 C72.02819046 127.77041977 73.00532501 127.76503693 74.0120697 127.75949097 C74.85768935 127.75915548 75.703309 127.75882 76.57455349 127.75847435 C79.36640757 127.46892017 81.47581966 126.74534772 83.99023438 125.50793457 C86.46403223 121.45448266 86.29134711 117.12511846 86.24023438 112.50793457 C86.24796875 111.8092627 86.25570312 111.11059082 86.26367188 110.39074707 C86.24847608 106.36386231 86.11262768 102.98559107 83.99023438 99.50793457 C80.57287961 97.82615961 77.79869244 97.25788044 74.0120697 97.25637817 C73.03493515 97.25099533 72.0578006 97.24561249 71.05105591 97.24006653 C69.46041824 97.24625252 69.46041824 97.24625252 67.83764648 97.25256348 C66.71192734 97.24894302 65.58620819 97.24532257 64.42637634 97.24159241 C61.98463183 97.23470404 59.54287194 97.23219192 57.10111809 97.23353958 C53.23914523 97.23450417 49.37745117 97.22157139 45.51551819 97.20455933 C34.53632672 97.15825762 23.55716642 97.13358447 12.57788086 97.1270752 C5.86116878 97.12292506 -0.85520977 97.09787856 -7.57183647 97.0617485 C-10.13352139 97.05192842 -12.69524638 97.04963051 -15.25694466 97.0549202 C-18.83380689 97.06196158 -22.40979292 97.04476878 -25.98657227 97.02209473 C-27.04902161 97.03026718 -28.11147095 97.03843964 -29.20611572 97.04685974 C-36.28699819 96.96675322 -36.28699819 96.96675322 -39.66636658 94.82150269 C-41.30586417 91.99800109 -41.51668825 90.23753795 -41.52734375 86.97668457 C-41.53995239 85.86873535 -41.55256104 84.76078613 -41.56555176 83.6192627 C-41.55745483 82.42752441 -41.54935791 81.23578613 -41.54101562 80.00793457 C-41.54484253 78.78010254 -41.54866943 77.55227051 -41.5526123 76.28723145 C-41.55533404 73.69151998 -41.54795474 71.09578121 -41.53125 68.50012207 C-41.50984637 64.52293858 -41.53104525 60.54756175 -41.55664062 56.57043457 C-41.5539974 54.04959724 -41.54887253 51.52876104 -41.54101562 49.00793457 C-41.54911255 47.81619629 -41.55720947 46.62445801 -41.56555176 45.39660645 C-41.55294312 44.28865723 -41.54033447 43.18070801 -41.52734375 42.03918457 C-41.52416138 41.06529785 -41.520979 40.09141113 -41.5177002 39.0880127 C-40.86688972 35.78218952 -39.60591984 34.58704763 -37.00976562 32.50793457 C-34.79907227 31.99377441 -34.79907227 31.99377441 -32.41992188 31.96887207 C-31.55302734 31.94566895 -30.68613281 31.92246582 -29.79296875 31.89855957 C-28.89513672 31.89340332 -27.99730469 31.88824707 -27.07226562 31.88293457 C-19.20476185 32.09300742 -19.20476185 32.09300742 -12.00976562 29.50793457 C-8.75567495 24.46902446 -9.65240919 17.51762112 -9.61914062 11.72473145 C-9.5959375 10.85783691 -9.57273437 9.99094238 -9.54882812 9.09777832 C-9.53650146 7.92009888 -9.53650146 7.92009888 -9.52392578 6.71862793 C-8.34911917 1.66740575 -4.85637686 0.00836026 0 0 Z " fill="#000000" transform="translate(41.009765625,191.4920654296875)"/>
<path d="M0 0 C1.0094165 -0.0112793 2.01883301 -0.02255859 3.05883789 -0.03417969 C4.16026123 -0.02608276 5.26168457 -0.01798584 6.39648438 -0.00964355 C7.56107178 -0.01665283 8.72565918 -0.02366211 9.92553711 -0.03088379 C13.78067771 -0.04850975 17.63508612 -0.03682384 21.49023438 -0.02331543 C24.1653739 -0.026009 26.84049107 -0.02988396 29.515625 -0.03491211 C35.12442987 -0.0421874 40.733024 -0.03260414 46.34179688 -0.0135498 C52.82441344 0.008219 59.30652679 0.00116752 65.78913116 -0.02085543 C71.35700027 -0.03901302 76.92471797 -0.04156609 82.49260712 -0.03110075 C85.81719107 -0.02486765 89.14148689 -0.02559741 92.46606445 -0.0372467 C96.17238595 -0.04738291 99.87773545 -0.03195028 103.58398438 -0.00964355 C104.68540771 -0.01774048 105.78683105 -0.0258374 106.92163086 -0.03417969 C108.43575562 -0.01726074 108.43575562 -0.01726074 109.98046875 0 C110.85650757 0.0015081 111.73254639 0.0030162 112.63513184 0.00457001 C115.78298929 0.67737294 116.99542 2.03609591 118.99023438 4.50793457 C119.5078125 7.10168457 119.5078125 7.10168457 119.52148438 10.00793457 C119.52921875 11.58574707 119.52921875 11.58574707 119.53710938 13.19543457 C119.52164063 14.28855957 119.50617188 15.38168457 119.49023438 16.50793457 C119.5134375 18.14762207 119.5134375 18.14762207 119.53710938 19.82043457 C119.53195313 20.87230957 119.52679688 21.92418457 119.52148438 23.00793457 C119.51697266 23.96699707 119.51246094 24.92605957 119.5078125 25.91418457 C118.79230823 29.49980596 118.00753108 30.38400919 114.99023438 32.50793457 C111.32269535 33.12160594 107.67802391 33.05063994 103.96704102 33.02209473 C102.28109077 33.03278236 102.28109077 33.03278236 100.56108093 33.04368591 C96.84067336 33.06300608 93.12083191 33.05467947 89.40039062 33.04699707 C86.81732855 33.0568991 84.23427354 33.06883846 81.65122986 33.08273315 C75.54094124 33.11183734 69.43083732 33.12468697 63.32048649 33.12830961 C51.73422274 33.13535039 40.14812811 33.17071443 28.56197929 33.22175217 C24.7546536 33.23435879 20.94749437 33.23357719 17.14015198 33.23147583 C14.80770743 33.23805585 12.47526403 33.24506205 10.14282227 33.25256348 C9.08239716 33.24843948 8.02197205 33.24431549 6.92941284 33.24006653 C5.46371101 33.24814079 5.46371101 33.24814079 3.96839905 33.25637817 C3.1227794 33.25671366 2.27715975 33.25704914 1.40591526 33.25739479 C-1.38593882 33.54694897 -3.49535091 34.27052142 -6.00976562 35.50793457 C-8.48356348 39.56138648 -8.31087836 43.89075068 -8.25976562 48.50793457 C-8.2675 49.20660645 -8.27523437 49.90527832 -8.28320312 50.62512207 C-8.26800733 54.65200684 -8.13215893 58.03027807 -6.00976562 61.50793457 C-2.59241086 63.18970953 0.18177631 63.7579887 3.96839905 63.75949097 C4.9455336 63.76487381 5.92266815 63.77025665 6.92941284 63.77580261 C8.52005051 63.76961662 8.52005051 63.76961662 10.14282227 63.76330566 C11.26854141 63.76692612 12.39426056 63.77054657 13.55409241 63.77427673 C15.99583692 63.7811651 18.43759681 63.78367722 20.87935066 63.78232956 C24.74132352 63.78136497 28.60301758 63.79429775 32.46495056 63.81130981 C43.44414203 63.85761152 54.42330233 63.88228467 65.40258789 63.88879395 C72.11929997 63.89294408 78.83567852 63.91799058 85.55230522 63.95412064 C88.11399014 63.96394072 90.67571513 63.96623863 93.23741341 63.96094894 C96.81427564 63.95390756 100.39026167 63.97110036 103.96704102 63.99377441 C105.02949036 63.98560196 106.0919397 63.9774295 107.18658447 63.9690094 C114.33958523 64.0499318 114.33958523 64.0499318 117.64683533 66.37796021 C119.34997206 69.07830273 119.50650394 70.82352198 119.52148438 74.00793457 C119.52921875 75.58574707 119.52921875 75.58574707 119.53710938 77.19543457 C119.52164063 78.28855957 119.50617188 79.38168457 119.49023438 80.50793457 C119.5134375 82.14762207 119.5134375 82.14762207 119.53710938 83.82043457 C119.53195313 84.87230957 119.52679688 85.92418457 119.52148438 87.00793457 C119.51697266 87.96699707 119.51246094 88.92605957 119.5078125 89.91418457 C118.79230823 93.49980596 118.00753108 94.38400919 114.99023438 96.50793457 C111.32269535 97.12160594 107.67802391 97.05063994 103.96704102 97.02209473 C102.28109077 97.03278236 102.28109077 97.03278236 100.56108093 97.04368591 C96.84067336 97.06300608 93.12083191 97.05467947 89.40039062 97.04699707 C86.81732855 97.0568991 84.23427354 97.06883846 81.65122986 97.08273315 C75.54094124 97.11183734 69.43083732 97.12468697 63.32048649 97.12830961 C51.73422274 97.13535039 40.14812811 97.17071443 28.56197929 97.22175217 C24.7546536 97.23435879 20.94749437 97.23357719 17.14015198 97.23147583 C14.80770743 97.23805585 12.47526403 97.24506205 10.14282227 97.25256348 C9.08239716 97.24843948 8.02197205 97.24431549 6.92941284 97.24006653 C5.95227829 97.24544937 4.97514374 97.25083221 3.96839905 97.25637817 C3.1227794 97.25671366 2.27715975 97.25704914 1.40591526 97.25739479 C-1.38593882 97.54694897 -3.49535091 98.27052142 -6.00976562 99.50793457 C-8.48356348 103.56138648 -8.31087836 107.89075068 -8.25976562 112.50793457 C-8.2675 113.20660645 -8.27523437 113.90527832 -8.28320312 114.62512207 C-8.26800733 118.65200684 -8.13215893 122.03027807 -6.00976562 125.50793457 C-2.59241086 127.18970953 0.18177631 127.7579887 3.96839905 127.75949097 C4.9455336 127.76487381 5.92266815 127.77025665 6.92941284 127.77580261 C8.52005051 127.76961662 8.52005051 127.76961662 10.14282227 127.76330566 C11.26854141 127.76692612 12.39426056 127.77054657 13.55409241 127.77427673 C15.99583692 127.7811651 18.43759681 127.78367722 20.87935066 127.78232956 C24.74132352 127.78136497 28.60301758 127.79429775 32.46495056 127.81130981 C43.44414203 127.85761152 54.42330233 127.88228467 65.40258789 127.88879395 C72.11929997 127.89294408 78.83567852 127.91799058 85.55230522 127.95412064 C88.11399014 127.96394072 90.67571513 127.96623863 93.23741341 127.96094894 C96.81427564 127.95390756 100.39026167 127.97110036 103.96704102 127.99377441 C105.02949036 127.98560196 106.0919397 127.9774295 107.18658447 127.9690094 C114.33958523 128.0499318 114.33958523 128.0499318 117.64683533 130.37796021 C119.34997206 133.07830273 119.50650394 134.82352198 119.52148438 138.00793457 C119.52921875 139.58574707 119.52921875 139.58574707 119.53710938 141.19543457 C119.52164063 142.28855957 119.50617188 143.38168457 119.49023438 144.50793457 C119.5134375 146.14762207 119.5134375 146.14762207 119.53710938 147.82043457 C119.53195313 148.87230957 119.52679688 149.92418457 119.52148438 151.00793457 C119.51697266 151.96699707 119.51246094 152.92605957 119.5078125 153.91418457 C118.83397761 157.29098736 117.63071024 158.34342518 114.99023438 160.50793457 C112.63513184 161.01129913 112.63513184 161.01129913 109.98046875 161.01586914 C108.97105225 161.02714844 107.96163574 161.03842773 106.92163086 161.05004883 C105.26949585 161.03790344 105.26949585 161.03790344 103.58398438 161.0255127 C102.41939697 161.03252197 101.25480957 161.03953125 100.05493164 161.04675293 C96.19979104 161.06437889 92.34538263 161.05269298 88.49023438 161.03918457 C85.81509485 161.04187814 83.13997768 161.0457531 80.46484375 161.05078125 C74.85603888 161.05805654 69.24744475 161.04847328 63.63867188 161.02941895 C57.15605531 161.00765014 50.67394196 161.01470162 44.19133759 161.03672457 C38.62346848 161.05488216 33.05575078 161.05743523 27.48786163 161.04696989 C24.16327768 161.04073679 20.83898186 161.04146655 17.5144043 161.05311584 C13.8080828 161.06325205 10.1027333 161.04781942 6.39648438 161.0255127 C5.29506104 161.03360962 4.1936377 161.04170654 3.05883789 161.05004883 C2.04942139 161.03876953 1.04000488 161.02749023 0 161.01586914 C-0.87603882 161.01436104 -1.75207764 161.01285294 -2.65466309 161.01129913 C-5.79356342 160.34041064 -7.00861609 158.96006127 -9.00976562 156.50793457 C-9.52392578 154.29724121 -9.52392578 154.29724121 -9.54882812 151.91809082 C-9.57203125 151.05119629 -9.59523438 150.18430176 -9.61914062 149.2911377 C-9.62429687 148.39330566 -9.62945313 147.49547363 -9.63476562 146.57043457 C-9.42469277 138.7029308 -9.42469277 138.7029308 -12.00976562 131.50793457 C-17.04867574 128.25384389 -24.00007907 129.15057814 -29.79296875 129.11730957 C-30.65986328 129.09410645 -31.52675781 129.07090332 -32.41992188 129.04699707 C-33.2050415 129.0387793 -33.99016113 129.03056152 -34.79907227 129.02209473 C-37.99834965 128.278011 -39.02228123 127.12810237 -41.00976562 124.50793457 C-41.4043235 121.56008187 -41.55708877 118.98616174 -41.52734375 116.03918457 C-41.53435303 115.18671143 -41.5413623 114.33423828 -41.54858398 113.45593262 C-41.56618131 110.63960137 -41.55453522 107.82427593 -41.54101562 105.00793457 C-41.54371004 103.05025032 -41.54759204 101.09256737 -41.5526123 99.1348877 C-41.5585097 95.0325445 -41.54993656 90.93054975 -41.53125 86.82824707 C-41.50846038 81.56872829 -41.52158216 76.31002593 -41.54553986 71.05053711 C-41.55999126 67.00819747 -41.55539485 62.96605152 -41.54502869 58.92370605 C-41.54235958 56.98441471 -41.5456376 55.0451058 -41.5549469 53.10583496 C-41.56510164 50.39564407 -41.5496269 47.68677682 -41.52734375 44.97668457 C-41.53544067 44.17448486 -41.5435376 43.37228516 -41.55187988 42.54577637 C-41.49714642 38.95408804 -41.31750644 36.91363968 -39.11558533 34.01077271 C-36.6706871 32.26594797 -35.39844045 32.00004794 -32.41992188 31.96887207 C-31.55302734 31.94566895 -30.68613281 31.92246582 -29.79296875 31.89855957 C-28.89513672 31.89340332 -27.99730469 31.88824707 -27.07226562 31.88293457 C-19.20476185 32.09300742 -19.20476185 32.09300742 -12.00976562 29.50793457 C-8.75567495 24.46902446 -9.65240919 17.51762112 -9.61914062 11.72473145 C-9.5959375 10.85783691 -9.57273437 9.99094238 -9.54882812 9.09777832 C-9.53650146 7.92009888 -9.53650146 7.92009888 -9.52392578 6.71862793 C-8.34911917 1.66740575 -4.85637686 0.00836026 0 0 Z " fill="#000000" transform="translate(41.009765625,-0.5079345703125)"/>
<path d="M0 0 C0.85247314 -0.00700928 1.70494629 -0.01401855 2.58325195 -0.02124023 C5.3995832 -0.03883756 8.21490864 -0.02719147 11.03125 -0.01367188 C12.98893425 -0.01636629 14.9466172 -0.02024829 16.90429688 -0.02526855 C21.00664007 -0.03116595 25.10863482 -0.02259281 29.2109375 -0.00390625 C34.47045628 0.01888337 39.72915864 0.00576159 44.98864746 -0.01819611 C49.0309871 -0.03264751 53.07313305 -0.0280511 57.11547852 -0.01768494 C59.05476986 -0.01501583 60.99407877 -0.01829385 62.93334961 -0.02760315 C65.6435405 -0.03775789 68.35240775 -0.02228315 71.0625 0 C71.86469971 -0.00809692 72.66689941 -0.01619385 73.4934082 -0.02453613 C77.08509653 0.03019733 79.12554489 0.20983731 82.02841187 2.41175842 C83.7732366 4.85665665 84.03913663 6.1289033 84.0703125 9.10742188 C84.09351563 9.97431641 84.11671875 10.84121094 84.140625 11.734375 C84.14835937 13.08112305 84.14835937 13.08112305 84.15625 14.45507812 C83.94617715 22.3225819 83.94617715 22.3225819 86.53125 29.51757812 C91.57016011 32.7716688 98.52156345 31.87493456 104.31445312 31.90820312 C105.18134766 31.93140625 106.04824219 31.95460938 106.94140625 31.97851562 C108.11908569 31.99084229 108.11908569 31.99084229 109.32055664 32.00341797 C112.39773102 32.71910314 113.5305487 34.10756314 115.53125 36.51757812 C116.03461456 38.87268066 116.03461456 38.87268066 116.03918457 41.52734375 C116.05046387 42.53676025 116.06174316 43.54617676 116.07336426 44.58618164 C116.06526733 45.68760498 116.05717041 46.78902832 116.04882812 47.92382812 C116.0558374 49.08841553 116.06284668 50.25300293 116.07006836 51.45288086 C116.08769432 55.30802146 116.07600841 59.16242987 116.0625 63.01757812 C116.06519357 65.69271765 116.06906853 68.36783482 116.07409668 71.04296875 C116.08137197 76.65177362 116.07178871 82.26036775 116.05273438 87.86914062 C116.03096557 94.35175719 116.03801705 100.83387054 116.06004 107.31647491 C116.07819759 112.88434402 116.08075066 118.45206172 116.07028532 124.01995087 C116.06405222 127.34453482 116.06478198 130.66883064 116.07643127 133.9934082 C116.08656748 137.6997297 116.07113485 141.4050792 116.04882812 145.11132812 C116.05692505 146.21275146 116.06502197 147.3141748 116.07336426 148.44897461 C116.06208496 149.45839111 116.05080566 150.46780762 116.03918457 151.5078125 C116.03767647 152.38385132 116.03616837 153.25989014 116.03461456 154.16247559 C115.36181163 157.31033304 114.00308866 158.52276375 111.53125 160.51757812 C108.9375 161.03515625 108.9375 161.03515625 106.03125 161.04882812 C104.979375 161.05398437 103.9275 161.05914062 102.84375 161.06445312 C101.750625 161.04898438 100.6575 161.03351563 99.53125 161.01757812 C98.438125 161.03304687 97.345 161.04851562 96.21875 161.06445312 C95.166875 161.05929688 94.115 161.05414063 93.03125 161.04882812 C92.0721875 161.04431641 91.113125 161.03980469 90.125 161.03515625 C86.74449779 160.36058314 85.69419078 159.16559836 83.53125 156.51757812 C83.02572632 154.09608459 83.02572632 154.09608459 83.01708984 151.36938477 C83.0038266 150.34474625 82.99056335 149.32010773 82.97689819 148.26441956 C82.9844664 146.61276039 82.9844664 146.61276039 82.9921875 144.92773438 C82.98039459 143.7910582 82.96860168 142.65438202 82.95645142 141.48326111 C82.92112609 137.84872796 82.91201592 134.21476905 82.90625 130.58007812 C82.88990629 126.94913045 82.86784951 123.31844023 82.83462524 119.68760681 C82.8150055 117.42836632 82.80565924 115.16900797 82.80770874 112.90968323 C82.80074982 111.88189255 82.79379089 110.85410187 82.78662109 109.79516602 C82.78536224 108.89455948 82.78410339 107.99395294 82.7828064 107.0660553 C82.49217563 104.12172203 81.99082701 102.10134034 80.53125 99.51757812 C76.51156321 97.07748073 72.27114001 97.23316106 67.69921875 97.25878906 C66.92623444 97.25528442 66.15325012 97.25177979 65.35684204 97.24816895 C62.81071905 97.23939193 60.26487565 97.24518648 57.71875 97.25195312 C55.94425402 97.25060532 54.16975839 97.24866381 52.39526367 97.24615479 C48.67981443 97.24320898 44.96446147 97.24748368 41.24902344 97.25683594 C36.49092443 97.26823015 31.73305106 97.26166777 26.97496033 97.24969101 C23.31179103 97.24245773 19.64867507 97.24476709 15.98550415 97.24994659 C14.23125176 97.25127903 12.4769945 97.24964962 10.7227478 97.24498749 C8.26946213 97.23989814 5.81653992 97.24766622 3.36328125 97.25878906 C2.27994003 97.25271637 2.27994003 97.25271637 1.17471313 97.246521 C-2.77868127 97.27966074 -6.04835158 97.44127076 -9.46875 99.51757812 C-11.40060343 102.93737022 -11.71869589 105.9138675 -11.72412109 109.79516602 C-11.73455948 111.33685204 -11.73455948 111.33685204 -11.74520874 112.90968323 C-11.74421173 114.00876511 -11.74321472 115.10784698 -11.7421875 116.24023438 C-11.76246769 118.5755257 -11.78331829 120.91081213 -11.8046875 123.24609375 C-11.8273342 126.92199857 -11.84377797 130.59771013 -11.84960938 134.27368164 C-11.85910655 137.82538601 -11.89284091 141.37622341 -11.9296875 144.92773438 C-11.92464203 146.02884048 -11.91959656 147.12994659 -11.91439819 148.26441956 C-11.92766144 149.28905807 -11.94092468 150.31369659 -11.95458984 151.36938477 C-11.95743988 152.26919571 -11.96028992 153.16900665 -11.96322632 154.09608459 C-12.63057427 157.29272762 -13.95528407 158.49900876 -16.46875 160.51757812 C-19.0625 161.03515625 -19.0625 161.03515625 -21.96875 161.04882812 C-23.020625 161.05398437 -24.0725 161.05914062 -25.15625 161.06445312 C-26.249375 161.04898438 -27.3425 161.03351563 -28.46875 161.01757812 C-30.1084375 161.04078125 -30.1084375 161.04078125 -31.78125 161.06445312 C-32.833125 161.05929688 -33.885 161.05414063 -34.96875 161.04882812 C-35.9278125 161.04431641 -36.886875 161.03980469 -37.875 161.03515625 C-41.25180279 160.36132136 -42.30424061 159.15805399 -44.46875 156.51757812 C-44.97211456 154.16247559 -44.97211456 154.16247559 -44.97668457 151.5078125 C-44.98796387 150.498396 -44.99924316 149.48897949 -45.01086426 148.44897461 C-45.00276733 147.34755127 -44.99467041 146.24612793 -44.98632812 145.11132812 C-44.9933374 143.94674072 -45.00034668 142.78215332 -45.00756836 141.58227539 C-45.02519432 137.72713479 -45.01350841 133.87272638 -45 130.01757812 C-45.00269357 127.3424386 -45.00656853 124.66732143 -45.01159668 121.9921875 C-45.01887197 116.38338263 -45.00928871 110.7747885 -44.99023438 105.16601562 C-44.96846557 98.68339906 -44.97551705 92.20128571 -44.99754 85.71868134 C-45.01569759 80.15081223 -45.01825066 74.58309453 -45.00778532 69.01520538 C-45.00155222 65.69062143 -45.00228198 62.36632561 -45.01393127 59.04174805 C-45.02406748 55.33542655 -45.00863485 51.63007705 -44.98632812 47.92382812 C-44.99442505 46.82240479 -45.00252197 45.72098145 -45.01086426 44.58618164 C-44.99958496 43.57676514 -44.98830566 42.56734863 -44.97668457 41.52734375 C-44.97517647 40.65130493 -44.97366837 39.77526611 -44.97211456 38.87268066 C-44.30122607 35.73378033 -42.9208767 34.51872766 -40.46875 32.51757812 C-38.25805664 32.00341797 -38.25805664 32.00341797 -35.87890625 31.97851562 C-35.01201172 31.9553125 -34.14511719 31.93210937 -33.25195312 31.90820312 C-32.35412109 31.90304688 -31.45628906 31.89789062 -30.53125 31.89257812 C-22.66374623 32.10265098 -22.66374623 32.10265098 -15.46875 29.51757812 C-12.21465932 24.47866801 -13.11139357 17.52726468 -13.078125 11.734375 C-13.05492187 10.86748047 -13.03171875 10.00058594 -13.0078125 9.10742188 C-12.99548584 7.92974243 -12.99548584 7.92974243 -12.98291016 6.72827148 C-11.40762447 -0.04485858 -5.91825342 -0.05973531 0 0 Z M-11.46875 36.51757812 C-12.90678719 40.33707818 -12.65258004 44.42912967 -12.65625 48.45507812 C-12.66849609 49.15826172 -12.68074219 49.86144531 -12.69335938 50.5859375 C-12.70486679 54.67874009 -12.38054136 57.87511249 -10.46875 61.51757812 C-7.07126935 64.91505878 -3.63534356 64.6344504 1.05029297 64.66421509 C1.77611572 64.6637619 2.50193848 64.66330872 3.24975586 64.6628418 C4.02259415 64.66620041 4.79543243 64.66955902 5.59169006 64.67301941 C8.14317436 64.68250836 10.69459291 64.6844714 13.24609375 64.68554688 C15.02201871 64.68876058 16.7979434 64.69212474 18.5738678 64.69563293 C22.29526381 64.70161884 26.01663662 64.70347336 29.73803711 64.70288086 C34.50399528 64.7027792 39.26980461 64.71643787 44.0357275 64.73365307 C47.70317772 64.74477635 51.37059197 64.74679998 55.03805733 64.74627113 C56.79510575 64.7474505 58.55215513 64.75186987 60.30918694 64.7596035 C62.76734706 64.76941119 65.22518418 64.76652245 67.68334961 64.76049805 C68.40714813 64.76611755 69.13094666 64.77173706 69.87667847 64.77752686 C75.03837625 64.7454149 78.81236695 64.23646117 82.53125 60.51757812 C83.96928719 56.69807807 83.71508004 52.60602658 83.71875 48.58007812 C83.73099609 47.87689453 83.74324219 47.17371094 83.75585938 46.44921875 C83.76736679 42.35641616 83.44304136 39.16004376 81.53125 35.51757812 C78.13376935 32.12009747 74.69784356 32.40070585 70.01220703 32.37094116 C69.28638428 32.37139435 68.56056152 32.37184753 67.81274414 32.37231445 C67.03990585 32.36895584 66.26706757 32.36559723 65.47080994 32.36213684 C62.91932564 32.35264789 60.36790709 32.35068485 57.81640625 32.34960938 C56.04048129 32.34639567 54.2645566 32.34303151 52.4886322 32.33952332 C48.76723619 32.33353741 45.04586338 32.33168289 41.32446289 32.33227539 C36.55850472 32.33237705 31.79269539 32.31871838 27.0267725 32.30150318 C23.35932228 32.2903799 19.69190803 32.28835627 16.02444267 32.28888512 C14.26739425 32.28770575 12.51034487 32.28328638 10.75331306 32.27555275 C8.29515294 32.26574506 5.83731582 32.2686338 3.37915039 32.2746582 C2.29345261 32.26622894 2.29345261 32.26622894 1.18582153 32.25762939 C-3.97587625 32.28974135 -7.74986695 32.79869508 -11.46875 36.51757812 Z " fill="#000000" transform="translate(236.46875,-0.517578125)"/>
<path d="M0 0 C1.051875 -0.00515625 2.10375 -0.0103125 3.1875 -0.015625 C4.280625 -0.00015625 5.37375 0.0153125 6.5 0.03125 C8.1396875 0.00804687 8.1396875 0.00804687 9.8125 -0.015625 C10.864375 -0.01046875 11.91625 -0.0053125 13 0 C14.43859375 0.00676758 14.43859375 0.00676758 15.90625 0.01367188 C19.28675221 0.68824498 20.33705922 1.88322977 22.5 4.53125 C23.00552368 6.95274353 23.00552368 6.95274353 23.01416016 9.67944336 C23.0274234 10.70408188 23.04068665 11.7287204 23.05435181 12.78440857 C23.04930634 13.88551468 23.04426086 14.98662079 23.0390625 16.12109375 C23.05085541 17.25776993 23.06264832 18.39444611 23.07479858 19.56556702 C23.11012391 23.20010016 23.11923408 26.83405907 23.125 30.46875 C23.14134371 34.09969767 23.16340049 37.7303879 23.19662476 41.36122131 C23.2162445 43.6204618 23.22559076 45.87982015 23.22354126 48.1391449 C23.23050018 49.16693558 23.23745911 50.19472626 23.24462891 51.25366211 C23.24588776 52.15426865 23.24714661 53.05487518 23.2484436 53.98277283 C23.53907437 56.92710609 24.04042299 58.94748779 25.5 61.53125 C29.51968679 63.97134739 33.76010999 63.81566707 38.33203125 63.79003906 C39.10501556 63.7935437 39.87799988 63.79704834 40.67440796 63.80065918 C43.22053095 63.80943619 45.76637435 63.80364164 48.3125 63.796875 C50.08699598 63.79822281 51.86149161 63.80016431 53.63598633 63.80267334 C57.35143557 63.80561914 61.06678853 63.80134445 64.78222656 63.79199219 C69.54032557 63.78059798 74.29819894 63.78716036 79.05628967 63.79913712 C82.71945897 63.80637039 86.38257493 63.80406104 90.04574585 63.79888153 C91.79999824 63.7975491 93.5542555 63.79917851 95.3085022 63.80384064 C97.76178787 63.80892999 100.21471008 63.80116191 102.66796875 63.79003906 C103.39019623 63.79408752 104.11242371 63.79813599 104.85653687 63.80230713 C108.80993127 63.76916738 112.07960158 63.60755736 115.5 61.53125 C117.43185343 58.11145791 117.74994589 55.13496062 117.75537109 51.25366211 C117.76233002 50.22587143 117.76928894 49.19808075 117.77645874 48.1391449 C117.77496323 46.49052208 117.77496323 46.49052208 117.7734375 44.80859375 C117.79371769 42.47330242 117.81456829 40.13801599 117.8359375 37.80273438 C117.8585842 34.12682956 117.87502797 30.45111799 117.88085938 26.77514648 C117.89035655 23.22344212 117.92409091 19.67260472 117.9609375 16.12109375 C117.95589203 15.01998764 117.95084656 13.91888153 117.94564819 12.78440857 C117.95891144 11.75977005 117.97217468 10.73513153 117.98583984 9.67944336 C117.98868988 8.77963242 117.99153992 7.87982147 117.99447632 6.95274353 C118.66182427 3.75610051 119.98653407 2.54981936 122.5 0.53125 C125.09375 0.01367188 125.09375 0.01367188 128 0 C129.051875 -0.00515625 130.10375 -0.0103125 131.1875 -0.015625 C132.280625 -0.00015625 133.37375 0.0153125 134.5 0.03125 C135.593125 0.01578125 136.68625 0.0003125 137.8125 -0.015625 C138.864375 -0.01046875 139.91625 -0.0053125 141 0 C141.9590625 0.00451172 142.918125 0.00902344 143.90625 0.01367188 C147.28305279 0.68750677 148.33549061 1.89077414 150.5 4.53125 C151.00336456 6.88635254 151.00336456 6.88635254 151.00793457 9.54101562 C151.01921387 10.55043213 151.03049316 11.55984863 151.04211426 12.59985352 C151.03401733 13.70127686 151.02592041 14.8027002 151.01757812 15.9375 C151.0245874 17.1020874 151.03159668 18.2666748 151.03881836 19.46655273 C151.05644432 23.32169333 151.04475841 27.17610174 151.03125 31.03125 C151.03394357 33.70638953 151.03781853 36.38150669 151.04284668 39.05664062 C151.05012197 44.6654455 151.04053871 50.27403963 151.02148438 55.8828125 C150.99971557 62.36542907 151.00676705 68.84754242 151.02879 75.33014679 C151.04694759 80.89801589 151.04950066 86.46573359 151.03903532 92.03362274 C151.03280222 95.3582067 151.03353198 98.68250252 151.04518127 102.00708008 C151.05531748 105.71340157 151.03988485 109.41875107 151.01757812 113.125 C151.02567505 114.22642334 151.03377197 115.32784668 151.04211426 116.46264648 C151.03083496 117.47206299 151.01955566 118.48147949 151.00793457 119.52148438 C151.00642647 120.39752319 151.00491837 121.27356201 151.00336456 122.17614746 C150.33247607 125.3150478 148.9521267 126.53010046 146.5 128.53125 C144.28930664 129.04541016 144.28930664 129.04541016 141.91015625 129.0703125 C141.04326172 129.09351563 140.17636719 129.11671875 139.28320312 129.140625 C138.38537109 129.14578125 137.48753906 129.1509375 136.5625 129.15625 C128.69499623 128.94617715 128.69499623 128.94617715 121.5 131.53125 C118.24590932 136.57016011 119.14264357 143.52156345 119.109375 149.31445312 C119.08617187 150.18134766 119.06296875 151.04824219 119.0390625 151.94140625 C119.03084473 152.72652588 119.02262695 153.51164551 119.01416016 154.32055664 C118.29847498 157.39773102 116.91001498 158.5305487 114.5 160.53125 C112.14489746 161.03461456 112.14489746 161.03461456 109.49023438 161.03918457 C108.48081787 161.05046387 107.47140137 161.06174316 106.43139648 161.07336426 C104.77926147 161.06121887 104.77926147 161.06121887 103.09375 161.04882812 C101.9291626 161.0558374 100.7645752 161.06284668 99.56469727 161.07006836 C95.70955667 161.08769432 91.85514826 161.07600841 88 161.0625 C85.32486047 161.06519357 82.64974331 161.06906853 79.97460938 161.07409668 C74.3658045 161.08137197 68.75721037 161.07178871 63.1484375 161.05273438 C56.66582093 161.03096557 50.18370758 161.03801705 43.70110321 161.06004 C38.13323411 161.07819759 32.56551641 161.08075066 26.99762726 161.07028532 C23.6730433 161.06405222 20.34874748 161.06478198 17.02416992 161.07643127 C13.31784843 161.08656748 9.61249893 161.07113485 5.90625 161.04882812 C4.80482666 161.05692505 3.70340332 161.06502197 2.56860352 161.07336426 C1.55918701 161.06208496 0.54977051 161.05080566 -0.49023438 161.03918457 C-1.36627319 161.03767647 -2.24231201 161.03616837 -3.14489746 161.03461456 C-6.29275492 160.36181163 -7.50518563 159.00308866 -9.5 156.53125 C-10.01757812 153.9375 -10.01757812 153.9375 -10.03125 151.03125 C-10.03640625 149.979375 -10.0415625 148.9275 -10.046875 147.84375 C-10.02367187 146.2040625 -10.02367187 146.2040625 -10 144.53125 C-10.01546875 143.438125 -10.0309375 142.345 -10.046875 141.21875 C-10.03914062 139.6409375 -10.03914062 139.6409375 -10.03125 138.03125 C-10.02673828 137.0721875 -10.02222656 136.113125 -10.01757812 135.125 C-9.30207386 131.53937861 -8.5172967 130.65517538 -5.5 128.53125 C-1.83246098 127.91757863 1.81221047 127.98854463 5.52319336 128.01708984 C7.2091436 128.00640221 7.2091436 128.00640221 8.92915344 127.99549866 C12.64956102 127.97617849 16.36940246 127.9845051 20.08984375 127.9921875 C22.67290583 127.98228547 25.25596083 127.97034611 27.83900452 127.95645142 C33.94929313 127.92734723 40.05939706 127.9144976 46.16974789 127.91087496 C57.75601163 127.90383418 69.34210626 127.86847014 80.92825508 127.8174324 C84.73558078 127.80482578 88.54274001 127.80560738 92.3500824 127.80770874 C94.68252695 127.80112872 97.01497034 127.79412252 99.34741211 127.78662109 C100.40783722 127.79074509 101.46826233 127.79486908 102.56082153 127.79911804 C103.53795609 127.7937352 104.51509064 127.78835236 105.52183533 127.7828064 C106.36745498 127.78247091 107.21307463 127.78213543 108.08431911 127.78178978 C110.87617319 127.4922356 112.98558528 126.76866315 115.5 125.53125 C117.97379786 121.47779809 117.80111274 117.14843389 117.75 112.53125 C117.75773437 111.83257812 117.76546875 111.13390625 117.7734375 110.4140625 C117.75824171 106.38717773 117.62239331 103.0089065 115.5 99.53125 C111.22141935 97.22010979 107.02844919 97.25017965 102.28491211 97.27587891 C101.47130722 97.27225845 100.65770233 97.268638 99.81944275 97.26490784 C98.05869096 97.25803152 96.29791794 97.25550508 94.53715324 97.25685501 C91.75049833 97.25782181 88.96422745 97.24486124 86.17762756 97.22787476 C78.25703869 97.1816388 70.33649073 97.15698305 62.41577148 97.15039062 C57.56636915 97.14538159 52.71737061 97.12116758 47.86810493 97.08506393 C46.02094507 97.07525627 44.17372975 97.07293925 42.32655144 97.07823563 C39.74582452 97.08529081 37.166306 97.06805848 34.58569336 97.04541016 C33.4408548 97.05766884 33.4408548 97.05766884 32.27288818 97.07017517 C28.7623136 97.01529306 26.85229006 96.80103005 24.02677917 94.63728333 C22.25327664 92.19092075 21.99228258 90.93609041 21.9609375 87.94140625 C21.93773437 87.07451172 21.91453125 86.20761719 21.890625 85.31445312 C21.88546875 84.41662109 21.8803125 83.51878906 21.875 82.59375 C22.08507285 74.72624623 22.08507285 74.72624623 19.5 67.53125 C14.46108989 64.27715932 7.50968655 65.17389357 1.71679688 65.140625 C0.84990234 65.11742187 -0.01699219 65.09421875 -0.91015625 65.0703125 C-1.69527588 65.06209473 -2.48039551 65.05387695 -3.28930664 65.04541016 C-6.38262944 64.3259692 -7.50291425 62.97050771 -9.5 60.53125 C-10.00793457 57.95117188 -10.00793457 57.95117188 -10.01757812 55 C-10.03018677 53.89205078 -10.04279541 52.78410156 -10.05578613 51.64257812 C-10.04768921 50.45083984 -10.03959229 49.25910156 -10.03125 48.03125 C-10.0350769 46.80341797 -10.03890381 45.57558594 -10.04284668 44.31054688 C-10.04556842 41.71483541 -10.03818911 39.11909664 -10.02148438 36.5234375 C-10.00008075 32.54625401 -10.02127963 28.57087718 -10.046875 24.59375 C-10.04423177 22.07291267 -10.03910691 19.55207647 -10.03125 17.03125 C-10.03934692 15.83951172 -10.04744385 14.64777344 -10.05578613 13.41992188 C-10.04317749 12.31197266 -10.03056885 11.20402344 -10.01757812 10.0625 C-10.01439575 9.08861328 -10.01121338 8.11472656 -10.00793457 7.11132812 C-8.90400804 1.50388012 -5.29098262 0.02489038 0 0 Z " fill="#000000" transform="translate(201.5,191.46875)"/>
</svg>
