<?xml version="1.0" encoding="UTF-8"?>
<svg version="1.1" xmlns="http://www.w3.org/2000/svg" width="2400" height="1933">
<path d="M0 0 C1.41771698 -0.01471344 1.41771698 -0.01471344 2.86407471 -0.02972412 C29.02410463 -0.25755836 54.47607352 3.46263541 78.4375 14.3125 C79.0881543 14.60495605 79.73880859 14.89741211 80.40917969 15.19873047 C111.80032167 29.52880954 135.90379034 55.00324685 148.1875 87.3125 C154.08759288 103.77065383 157.19794912 121.12474094 160.125 138.3125 C160.41044678 139.97986206 160.41044678 139.97986206 160.70166016 141.6809082 C164.28005527 163.68632227 166.12386816 185.90673348 167.72228622 208.12886429 C167.87819664 210.29440004 168.03576141 212.4598112 168.19351196 214.62521362 C171.55469149 260.92502516 174.05777878 307.29200125 175.625 353.6875 C175.66192963 354.77974884 175.69885925 355.87199768 175.73690796 356.99734497 C175.98141541 364.40102501 176.18924205 371.80537993 176.3820076 379.2105751 C176.44158217 381.46712341 176.50363624 383.72359603 176.56588745 385.98007202 C177.45262609 418.44513709 177.63847496 450.89898026 177.625 483.375 C177.62488041 484.65922852 177.62476082 485.94345703 177.6246376 487.26660156 C177.61942969 531.64598568 177.12695105 575.96495445 175.4375 620.3125 C175.40984055 621.04386925 175.38218109 621.77523849 175.35368347 622.52877045 C173.98627056 658.65665652 172.24662968 694.76592788 170.42871094 730.87353516 C169.57029713 748.01549711 168.84132483 765.15329128 168.4375 782.3125 C180.38270224 752.23473256 192.05280813 722.02967789 202.6887207 691.46124268 C203.51042315 689.10323529 204.33624277 686.74668874 205.16210938 684.39013672 C240.91885065 582.1866433 267.00610529 476.77263385 297.4375 306.3125 C297.60207703 305.29937744 297.76665405 304.28625488 297.93621826 303.24243164 C304.17570471 264.57328655 307.09603091 225.49858346 310.45573425 186.49908447 C319.74576735 78.78823149 319.74576735 78.78823149 350.375 50.5625 C371.35483275 32.96917568 396.27076061 32.23801552 422.1875 34.4375 C422.94716064 34.50152008 423.70682129 34.56554016 424.48950195 34.63150024 C461.4436509 37.79489596 498.08889694 42.9399149 534.4375 50.3125 C535.5139679 50.53069397 535.5139679 50.53069397 536.61218262 50.7532959 C570.35217777 57.64825969 609.99160778 66.51632044 639.203125 85.6796875 C639.75258789 86.0391748 640.30205078 86.39866211 640.86816406 86.76904297 C644.16474057 90.01125776 645.35833878 93.51059794 645.8066864 98.05235291 C645.81032047 99.42943308 645.79399009 100.80667198 645.76049805 102.18334961 C645.74529507 103.29955767 645.74529507 103.29955767 645.72978497 104.43831539 C645.54660437 112.17930139 644.49198979 119.74315801 643.26953125 127.37890625 C643.03513404 128.9058781 642.80194248 130.43303541 642.56983948 131.96035767 C642.07130952 135.22557476 641.56516269 138.48947796 641.05267334 141.75253296 C640.22994568 146.99175236 639.42417662 152.23349336 638.62158203 157.47583008 C638.34272923 159.29643507 638.06385945 161.11703747 637.78497314 162.93763733 C637.64517281 163.85041002 637.50537247 164.76318272 637.36133575 165.70361519 C636.93021848 168.51419186 636.4973769 171.32449848 636.06414795 174.13475037 C634.0186612 187.41765402 632.0383822 200.7092206 630.09765625 214.0078125 C629.96167778 214.93920736 629.82569931 215.87060223 629.68560028 216.83022118 C629.13801743 220.58120942 628.59051469 224.33220934 628.04316711 228.08323193 C617.05704824 303.32556148 603.71345092 378.05176192 589.91662025 452.82078362 C586.07355626 473.64830042 582.2421568 494.47792965 578.4375 515.3125 C578.20112949 516.60672001 578.20112949 516.60672001 577.95998383 517.92708588 C568.46605067 569.93285608 559.56113298 622.03261186 550.87621927 674.17865705 C550.50434073 676.41143798 550.1323406 678.64419862 549.76032639 680.87695694 C548.09768604 690.85737129 546.43931038 700.83848816 544.78515625 710.8203125 C544.67107052 711.50855826 544.55698479 712.19680403 544.43944192 712.90590572 C541.89506404 728.25860762 539.37764082 743.61493687 536.93457031 758.98413086 C536.73390677 760.24409126 536.53324324 761.50405167 536.32649899 762.80219269 C535.39276357 768.66884825 534.46415327 774.53621051 533.54664612 780.40542603 C522.7614938 848.824178 503.53620353 914.56483584 481.53637695 980.08081055 C476.33406077 995.57723263 471.20275973 1011.08902196 466.3125 1026.6875 C461.34163511 1042.52750217 456.1718383 1058.29026791 450.87773132 1074.02500916 C448.80268806 1080.20133235 446.76197317 1086.38864425 444.7265625 1092.578125 C427.03804751 1146.28842389 407.35691354 1199.18462665 385.4375 1251.3125 C384.99981293 1252.35386108 384.99981293 1252.35386108 384.55328369 1253.41625977 C365.75892083 1298.08587406 345.5983668 1342.14750831 323.9375 1385.5 C323.53210999 1386.31186768 323.12671997 1387.12373535 322.70904541 1387.96020508 C317.13679123 1399.10300843 311.41025284 1410.15817462 305.57519531 1421.16549683 C304.53731539 1423.12413327 303.50233299 1425.08425964 302.46875 1427.04516602 C294.83187676 1441.51268281 286.94225557 1455.77670882 278.625 1469.8671875 C275.86565658 1474.55123803 273.22494348 1479.28875174 270.625 1484.0625 C264.30905501 1495.59150009 257.36995207 1506.76029913 250.49462891 1517.9609375 C248.65301091 1520.96138039 246.81638522 1523.96481732 244.98046875 1526.96875 C237.04480348 1539.9113271 228.80037002 1552.64256347 220.4375 1565.3125 C219.46441895 1566.78855713 219.46441895 1566.78855713 218.47167969 1568.29443359 C204.60271883 1589.30313824 190.29556754 1609.9909879 175.4375 1630.3125 C174.87321289 1631.0854541 174.30892578 1631.8584082 173.72753906 1632.65478516 C165.92387699 1643.33313702 157.99366768 1653.90578866 149.921875 1664.3828125 C148.51626595 1666.21010427 147.11639778 1668.04161498 145.71875 1669.875 C140.42888329 1676.80536951 134.99098444 1683.59210242 129.4375 1690.3125 C128.31711273 1691.6831071 127.19736802 1693.05423959 126.078125 1694.42578125 C120.35371674 1701.42839522 114.60251648 1708.35432967 108.484375 1715.01953125 C106.35413187 1717.40589139 104.36584892 1719.87147006 102.375 1722.375 C97.03810762 1728.97367955 91.1744315 1735.05733875 85.328125 1741.203125 C82.26684203 1744.42259867 79.27685295 1747.69139961 76.3125 1751 C68.15989188 1759.95286414 59.44320095 1768.38892382 50.85009766 1776.91577148 C46.97816723 1780.76223384 43.12369076 1784.62434465 39.30078125 1788.51953125 C37.78396502 1790.05479703 36.26703531 1791.5899507 34.75 1793.125 C33.97849609 1793.91326172 33.20699219 1794.70152344 32.41210938 1795.51367188 C31.67412109 1796.25810547 30.93613281 1797.00253906 30.17578125 1797.76953125 C29.50587158 1798.44991455 28.83596191 1799.13029785 28.14575195 1799.83129883 C26.4375 1801.3125 26.4375 1801.3125 24.4375 1801.3125 C24.4375 1801.9725 24.4375 1802.6325 24.4375 1803.3125 C23.14453125 1804.6171875 23.14453125 1804.6171875 21.25 1806.1875 C17.3851439 1809.46885207 13.64917053 1812.86079083 9.9375 1816.3125 C2.66804806 1823.0472968 -4.78530903 1829.52647544 -12.36328125 1835.91210938 C-15.27647403 1838.36865752 -18.17698957 1840.83785763 -21.0546875 1843.3359375 C-27.1082057 1848.58603324 -33.21571346 1853.6922929 -39.60644531 1858.52807617 C-43.10771713 1861.17929478 -46.54039256 1863.89925388 -49.94628906 1866.671875 C-63.95212105 1878.04657476 -78.66937629 1887.98293275 -94.29492188 1897.00195312 C-95.67581977 1897.80004312 -97.05314388 1898.60441509 -98.42382812 1899.41992188 C-154.15685132 1932.5497491 -217.92396296 1934.47414909 -279.5625 1921.3125 C-280.32145569 1921.15054138 -281.08041138 1920.98858276 -281.86236572 1920.82171631 C-292.36995751 1918.57239935 -302.85330269 1916.22156611 -313.32769775 1913.82287598 C-315.57630565 1913.30934712 -317.82584262 1912.80008943 -320.07568359 1912.29199219 C-337.01842562 1908.46116498 -353.77183657 1904.37539193 -370.31640625 1899.03369141 C-373.32459862 1898.06780007 -376.34947104 1897.15990537 -379.375 1896.25 C-381.43848441 1895.60731888 -383.50095147 1894.9613641 -385.5625 1894.3125 C-386.75746094 1893.94382812 -387.95242188 1893.57515625 -389.18359375 1893.1953125 C-404.0665361 1888.48542893 -418.50717613 1882.53565617 -432.99169922 1876.73950195 C-435.07990796 1875.90498943 -437.16945689 1875.07378997 -439.26220703 1874.25073242 C-446.73176911 1871.30675569 -454.07976376 1868.08519918 -461.4375 1864.875 C-464.01772688 1863.75014502 -466.59844926 1862.62643848 -469.1796875 1861.50390625 C-470.11955757 1861.09479256 -470.11955757 1861.09479256 -471.07841492 1860.67741394 C-475.06048601 1858.94909271 -479.0604444 1857.27035905 -483.07421875 1855.6171875 C-487.31943521 1853.85733039 -491.41497716 1851.97822817 -495.5 1849.875 C-502.36083753 1846.38295695 -509.28189162 1843.02630579 -516.22250366 1839.69589233 C-537.57440219 1829.44472874 -558.84129429 1818.9906284 -579.75 1807.859375 C-584.60144647 1805.27996724 -589.48520857 1802.76450475 -594.36865234 1800.24633789 C-605.69583536 1794.40292479 -616.94630052 1788.44449993 -628.11328125 1782.30078125 C-631.86985378 1780.23422377 -635.63857543 1778.19248806 -639.41796875 1776.16796875 C-650.61303875 1770.16559493 -661.67563768 1763.99072756 -672.62353516 1757.54785156 C-679.47733263 1753.51594261 -686.37726876 1749.57745529 -693.3125 1745.6875 C-702.9686456 1740.2580106 -712.49788539 1734.64422686 -721.96435547 1728.89111328 C-724.72509397 1727.21370911 -727.48940778 1725.54229301 -730.25390625 1723.87109375 C-741.58144317 1717.01236563 -752.84191871 1710.05857405 -764.00732422 1702.93896484 C-766.7731523 1701.17841194 -769.54475109 1699.42714463 -772.31640625 1697.67578125 C-787.21252503 1688.2346631 -801.84289887 1678.44608775 -816.39208984 1668.48242188 C-819.24395242 1666.53052333 -822.09945463 1664.58414381 -824.95703125 1662.640625 C-840.92166791 1651.77284406 -856.6304085 1640.59797814 -872.14648438 1629.09912109 C-874.55688928 1627.31664907 -876.97273557 1625.54183442 -879.390625 1623.76953125 C-889.22999152 1616.55386258 -898.97996029 1609.23433952 -908.64599609 1601.78808594 C-910.4350575 1600.4106226 -912.22669802 1599.03661115 -914.01953125 1597.6640625 C-917.2071888 1595.22215881 -920.38717313 1592.7704132 -923.5625 1590.3125 C-924.40675537 1589.65967041 -924.40675537 1589.65967041 -925.26806641 1588.99365234 C-932.29241947 1583.55159013 -939.19277814 1577.99860487 -945.94921875 1572.22680664 C-949.10969272 1569.52948892 -952.30528645 1566.89200299 -955.5625 1564.3125 C-961.11238274 1559.91025053 -966.50071977 1555.32302327 -971.89355469 1550.73144531 C-974.05587517 1548.89303007 -976.22464707 1547.06232405 -978.39355469 1545.23168945 C-981.11987744 1542.92923116 -983.84121935 1540.62091309 -986.5625 1538.3125 C-987.13645508 1537.8263623 -987.71041016 1537.34022461 -988.30175781 1536.83935547 C-995.63810217 1530.61905908 -1002.84139536 1524.289012 -1009.90234375 1517.7578125 C-1012.07471246 1515.76089207 -1014.26789163 1513.80421266 -1016.5 1511.875 C-1021.16833805 1507.82524091 -1025.68232373 1503.61030012 -1030.21484375 1499.41015625 C-1033.25549507 1496.59273599 -1036.31357729 1493.79484985 -1039.375 1491 C-1060.0252809 1472.07514045 -1060.0252809 1472.07514045 -1068.375 1463.4375 C-1070.25812015 1461.60818328 -1072.18223087 1459.90626602 -1074.17320251 1458.19761658 C-1078.6225486 1454.31341072 -1082.80942033 1450.20643572 -1086.97875977 1446.02563477 C-1087.77823029 1445.22791656 -1088.57770081 1444.43019836 -1089.40139771 1443.60830688 C-1092.02140712 1440.99266858 -1094.63777693 1438.37342494 -1097.25390625 1435.75390625 C-1099.08643749 1433.92204941 -1100.9191171 1432.09034097 -1102.75193787 1430.2587738 C-1106.58389298 1426.42828924 -1110.41409109 1422.59606037 -1114.24291992 1418.76245117 C-1118.65130385 1414.34862643 -1123.06327828 1409.93841531 -1127.47713429 1405.53006321 C-1131.74662916 1401.26567655 -1136.01327911 1396.99845615 -1140.27876091 1392.73005486 C-1142.08364516 1390.92450613 -1143.88926533 1389.11969273 -1145.6956501 1387.31564522 C-1148.22474712 1384.78910323 -1150.75059022 1382.25935099 -1153.27563477 1379.72875977 C-1154.01401077 1378.99240799 -1154.75238678 1378.25605621 -1155.51313782 1377.49739075 C-1159.51364479 1373.48068599 -1163.34350256 1369.37302643 -1167.03171444 1365.06702328 C-1169.38761905 1362.36678258 -1171.91444139 1359.85469031 -1174.46875 1357.34375 C-1174.99714478 1356.81914185 -1175.52553955 1356.29453369 -1176.06994629 1355.75402832 C-1177.73166351 1354.10433919 -1179.39662137 1352.45798606 -1181.0625 1350.8125 C-1193.54723543 1338.48059433 -1193.54723543 1338.48059433 -1198.91210938 1332.18554688 C-1202.11328787 1328.55249341 -1205.60939278 1325.20383428 -1209.0625 1321.8125 C-1213.84130802 1317.1191805 -1218.43405094 1312.37258022 -1222.80273438 1307.29492188 C-1225.89644006 1303.80978173 -1229.23686478 1300.57442574 -1232.5625 1297.3125 C-1237.23035016 1292.73407225 -1241.72688791 1288.10048681 -1245.97070312 1283.12304688 C-1247.59837096 1281.27169953 -1249.30223875 1279.53751975 -1251.0625 1277.8125 C-1253.49639732 1275.42196833 -1255.77605559 1272.96203738 -1258 1270.375 C-1260.41867779 1267.56673653 -1262.92149683 1264.91279407 -1265.5625 1262.3125 C-1268.83452128 1259.0909145 -1271.85566055 1255.72657855 -1274.84765625 1252.24609375 C-1277.03437334 1249.78043325 -1279.3695303 1247.49241213 -1281.72094727 1245.18530273 C-1283.48836259 1243.38789547 -1285.13929753 1241.53699747 -1286.78125 1239.625 C-1290.59238044 1235.24119176 -1294.56040187 1231.0216032 -1298.5625 1226.8125 C-1303.12032279 1222.01892776 -1307.59339569 1217.1806003 -1311.92773438 1212.18359375 C-1314.33629823 1209.42683846 -1316.81970719 1206.74294531 -1319.3125 1204.0625 C-1320.35563358 1202.93635058 -1321.39859849 1201.81004489 -1322.44140625 1200.68359375 C-1322.96105957 1200.12269043 -1323.48071289 1199.56178711 -1324.01611328 1198.98388672 C-1330.49989536 1191.97599722 -1336.93252251 1184.92247491 -1343.30859375 1177.81640625 C-1345.75700473 1175.09642109 -1348.22150079 1172.39154439 -1350.6875 1169.6875 C-1354.09736474 1165.94137742 -1357.46228972 1162.16309488 -1360.78515625 1158.33984375 C-1362.85609487 1155.97760827 -1364.95762848 1153.64454147 -1367.0625 1151.3125 C-1370.32640848 1147.69573655 -1373.55040949 1144.04860392 -1376.75 1140.375 C-1378.83461164 1138.00285571 -1380.94678644 1135.65693935 -1383.0625 1133.3125 C-1390.52561945 1125.03408179 -1397.78739314 1116.58735012 -1405.02490234 1108.11181641 C-1406.01629386 1106.9516774 -1407.00872904 1105.79242905 -1408.00244141 1104.63427734 C-1413.56917021 1098.14594349 -1418.98360452 1091.57093507 -1424.22900391 1084.81982422 C-1427.89611402 1080.11565588 -1431.68532938 1075.52238564 -1435.5 1070.9375 C-1440.99965756 1064.30606336 -1446.2430577 1057.52949022 -1451.3671875 1050.60546875 C-1454.36261465 1046.56116663 -1457.42329494 1042.56897986 -1460.48876953 1038.57763672 C-1467.54867512 1029.3766531 -1474.40524044 1020.07376938 -1481.01220703 1010.54296875 C-1482.61229052 1008.24086438 -1484.22498202 1005.94800833 -1485.83984375 1003.65625 C-1494.49620248 991.33576134 -1502.95717839 978.88366456 -1511.38870239 966.40863037 C-1512.65040737 964.54202193 -1513.91297143 962.67599383 -1515.17648315 960.81060791 C-1523.06099509 949.16458943 -1530.75185013 937.42142765 -1538.19918823 925.49092102 C-1540.57614019 921.69281538 -1542.97727874 917.91001342 -1545.375 914.125 C-1547.43971687 910.85556203 -1549.50127421 907.58413986 -1551.5625 904.3125 C-1552.13871094 903.39871582 -1552.71492188 902.48493164 -1553.30859375 901.54345703 C-1562.93851258 886.25725523 -1572.31285892 870.83134226 -1581.5625 855.3125 C-1587.18854875 845.89193551 -1592.86708966 836.50375203 -1598.5625 827.125 C-1599.11043213 826.22260086 -1599.11043213 826.22260086 -1599.66943359 825.30197144 C-1603.35395342 819.23430499 -1607.04021445 813.16771502 -1610.73492432 807.10624695 C-1619.00007587 793.54549645 -1627.18060691 779.93897884 -1635.2699585 766.27258301 C-1640.8091722 756.91638266 -1646.40224769 747.59595036 -1652.0625 738.3125 C-1658.54513375 727.68025159 -1664.92675667 716.9913318 -1671.26849365 706.27450562 C-1676.84556019 696.85237112 -1682.48455913 687.47142659 -1688.1875 678.125 C-1694.08830585 668.44648814 -1699.8965555 658.71895067 -1705.625 648.9375 C-1705.9690387 648.35038239 -1706.31307739 647.76326477 -1706.6675415 647.15835571 C-1720.06734162 624.27386192 -1732.90756565 601.45009101 -1741 576.0625 C-1741.2470166 575.28865967 -1741.4940332 574.51481934 -1741.74853516 573.7175293 C-1746.43752739 558.4323504 -1746.19788535 542.08726428 -1738.9375 527.6875 C-1731.27283384 514.52096952 -1719.72771966 505.56108378 -1706.6875 498.1875 C-1705.55344727 497.53934326 -1704.41939453 496.89118652 -1703.25097656 496.22338867 C-1694.34498989 491.16988506 -1685.24649163 486.54634287 -1676.05981445 482.02368164 C-1659.24989225 473.74298829 -1643.15900653 464.84411075 -1627.81494141 454.08740234 C-1606.3664278 439.10965536 -1583.29234406 428.33152096 -1557.5625 423.3125 C-1556.46421875 423.08691406 -1555.3659375 422.86132812 -1554.234375 422.62890625 C-1523.86890052 417.31128089 -1490.52289639 421.29788055 -1464.875 439.0625 C-1446.33075721 453.2561873 -1436.61522193 471.57796298 -1426.2734375 491.97363281 C-1422.41928745 499.49494503 -1418.31569959 506.88192215 -1414.23291016 514.28076172 C-1412.6878876 517.08492571 -1411.1490681 519.89237524 -1409.61224365 522.70103455 C-1399.47907985 541.23852086 -1399.47907985 541.23852086 -1388.72119141 559.41748047 C-1386.81809871 562.52995529 -1384.95178527 565.66438499 -1383.07983398 568.7956543 C-1378.35740826 576.69263603 -1373.61383365 584.57520117 -1368.75488281 592.38916016 C-1367.88926341 593.78542339 -1367.02708152 595.18381958 -1366.16699219 596.58349609 C-1348.40234528 625.49162504 -1329.56697474 653.79075564 -1310.4375 681.8125 C-1309.81061279 682.73119873 -1309.18372559 683.64989746 -1308.5378418 684.59643555 C-1297.83138188 700.25902514 -1286.95824405 715.80583399 -1275.99365234 731.28857422 C-1274.5302723 733.35807619 -1273.07120312 735.43055605 -1271.61328125 737.50390625 C-1264.88152223 747.07299091 -1258.06414675 756.57685448 -1251.19921875 766.05078125 C-1249.57740936 768.29189733 -1247.95984868 770.53601315 -1246.34375 772.78125 C-1240.21268934 781.29583614 -1234.02881652 789.76845886 -1227.79321289 798.20678711 C-1223.84842682 803.55085991 -1219.94315705 808.92171501 -1216.0625 814.3125 C-1205.12761793 829.48930485 -1194.01190694 844.51936264 -1182.5625 859.3125 C-1181.86543945 860.21427979 -1181.86543945 860.21427979 -1181.15429688 861.13427734 C-1175.09077875 868.96232286 -1168.86027181 876.64242205 -1162.54760742 884.27075195 C-1159.47361539 887.98574191 -1156.42634187 891.71579065 -1153.4375 895.5 C-1149.76238398 900.12734094 -1145.91585224 904.59739677 -1142.05419922 909.06884766 C-1138.99152816 912.62154609 -1136.00026399 916.21745717 -1133.0625 919.875 C-1129.05932408 924.82920667 -1124.77632974 929.47841258 -1120.37109375 934.07446289 C-1116.5625 938.10063744 -1116.5625 938.10063744 -1116.5625 940.3125 C-1115.9025 940.3125 -1115.2425 940.3125 -1114.5625 940.3125 C-1113.2578125 941.60546875 -1113.2578125 941.60546875 -1111.6875 943.5 C-1108.48044316 947.27261665 -1105.18016668 950.93412808 -1101.8125 954.5625 C-1100.76162298 955.69652584 -1099.71084242 956.83064108 -1098.66015625 957.96484375 C-1098.13953613 958.52671387 -1097.61891602 959.08858398 -1097.08251953 959.66748047 C-1094.79446852 962.14369115 -1092.52311173 964.63507881 -1090.25 967.125 C-1088.86746788 968.62989372 -1087.48481977 970.13468142 -1086.10108948 971.63847351 C-1085.12296652 972.70269744 -1084.14626923 973.76823482 -1083.17149353 974.83552551 C-1070.5702616 988.60835649 -1057.29844327 1001.73002789 -1044.09008789 1014.9152832 C-1040.76630143 1018.23332573 -1037.44709167 1021.55590495 -1034.12915134 1024.87979221 C-1031.54259999 1027.46997118 -1028.95365458 1030.05774672 -1026.36399651 1032.64481926 C-1025.13899571 1033.86915933 -1023.91471958 1035.09422496 -1022.69122505 1036.32007027 C-1014.13594218 1044.89335622 -1014.13594218 1044.89335622 -1005.11921692 1052.97596741 C-1002.84949486 1054.92465664 -1000.77177267 1057.04388861 -998.6875 1059.1875 C-995.90857083 1062.1401549 -995.90857083 1062.1401549 -992.5625 1064.3125 C-992.5625 1064.9725 -992.5625 1065.6325 -992.5625 1066.3125 C-991.70398438 1066.67794922 -991.70398438 1066.67794922 -990.828125 1067.05078125 C-988.15816462 1068.53767298 -986.42420993 1070.29333908 -984.3125 1072.5 C-980.93449419 1076.01978342 -977.39085334 1079.23224322 -973.70800781 1082.4230957 C-969.33190774 1086.27683244 -965.14316664 1090.33416122 -960.91796875 1094.3515625 C-956.23026219 1098.79074349 -951.44796539 1103.09237561 -946.5625 1107.3125 C-943.89583333 1109.64583333 -941.22916667 1111.97916667 -938.5625 1114.3125 C-940.15063072 1110.6555071 -942.41578238 1107.95586618 -945 1104.9375 C-948.75304579 1100.51529588 -952.38465521 1096.02185727 -955.9375 1091.4375 C-959.68729572 1086.61376916 -963.55785039 1081.92659492 -967.5625 1077.3125 C-972.56000503 1071.5534704 -977.30082219 1065.63190182 -981.98046875 1059.61328125 C-984.29468874 1056.64055035 -986.66613852 1053.71963125 -989.0625 1050.8125 C-993.80905064 1045.04103046 -998.42503486 1039.17344728 -1003.02197266 1033.28271484 C-1004.64919948 1031.2016181 -1006.28338808 1029.12610575 -1007.91796875 1027.05078125 C-1015.50600395 1017.39009811 -1022.81334474 1007.5653652 -1029.94921875 997.56689453 C-1032.11571546 994.53943832 -1034.30114401 991.52587706 -1036.48608398 988.51171875 C-1041.72644425 981.27997474 -1046.90682915 974.00892116 -1052.04541016 966.70458984 C-1058.33769151 957.77247889 -1064.75696401 948.93174767 -1071.17578125 940.09033203 C-1079.19570637 929.0434218 -1087.07508857 917.90647931 -1094.88671875 906.71142578 C-1101.51121421 897.22828295 -1108.20080312 887.79616759 -1115 878.4375 C-1120.0277506 871.51337636 -1124.88761108 864.48883295 -1129.69384766 857.40966797 C-1133.33531331 852.06252628 -1137.06734636 846.79239503 -1140.875 841.5625 C-1146.59093207 833.71061896 -1152.15253961 825.75819024 -1157.6862793 817.77709961 C-1161.66267679 812.0424539 -1165.65600204 806.32104628 -1169.6875 800.625 C-1173.99822733 794.53405721 -1178.28677997 788.42807179 -1182.5625 782.3125 C-1186.8815293 776.13563996 -1191.2114828 769.96687063 -1195.5625 763.8125 C-1202.86303436 753.48446981 -1210.10608566 743.11630306 -1217.35351562 732.75097656 C-1223.4073852 724.09361226 -1229.46479521 715.43906637 -1235.5625 706.8125 C-1241.06185581 699.032432 -1246.52892486 691.23005039 -1251.98828125 683.421875 C-1254.35711446 680.03394529 -1256.729618 676.648637 -1259.10546875 673.265625 C-1259.69537598 672.42491455 -1260.2852832 671.5842041 -1260.89306641 670.71801758 C-1261.97912373 669.17037824 -1263.06592273 667.62325883 -1264.15380859 666.0769043 C-1274.3237842 651.57527242 -1284.23148209 636.89324111 -1294.04736328 622.15039062 C-1295.69260651 619.67983187 -1297.34033175 617.21094167 -1298.98828125 614.7421875 C-1305.54707643 604.90609813 -1312.02426809 595.02121512 -1318.42285156 585.0802002 C-1319.93484187 582.73496329 -1321.45817364 580.39715072 -1322.98046875 578.05859375 C-1329.19791974 568.43296276 -1334.80868475 558.74188888 -1339.5625 548.3125 C-1340.06475098 547.22316162 -1340.06475098 547.22316162 -1340.57714844 546.11181641 C-1356.00673543 512.28987197 -1363.19334592 473.34804914 -1350.3125 437.5 C-1345.51235883 426.07948064 -1339.8422897 415.59056222 -1331.5625 406.3125 C-1330.79421875 405.4359375 -1330.0259375 404.559375 -1329.234375 403.65625 C-1322.19058062 395.8298118 -1314.74515744 388.3918426 -1307.3125 380.9375 C-1306.79316895 380.41549011 -1306.27383789 379.89348022 -1305.73876953 379.35565186 C-1299.86351701 373.45745638 -1293.95171498 367.66010614 -1287.5625 362.3125 C-1286.94987305 361.79848633 -1286.33724609 361.28447266 -1285.70605469 360.75488281 C-1264.01627392 342.72745622 -1241.04934842 326.34555094 -1216.5625 312.3125 C-1215.93408203 311.94560059 -1215.30566406 311.57870117 -1214.65820312 311.20068359 C-1166.16155811 282.93481699 -1112.47769188 264.52409392 -1057.625 253.3125 C-1056.66762939 253.11664307 -1055.71025879 252.92078613 -1054.72387695 252.71899414 C-1027.17166471 247.39632433 -999.0829238 250.44774579 -974.83984375 265.0546875 C-969.19138901 268.94599482 -964.37668759 273.44474704 -959.5625 278.3125 C-958.68722656 279.17746094 -957.81195312 280.04242188 -956.91015625 280.93359375 C-940.78781592 297.65213773 -932.99587025 319.83279122 -927.18359375 341.88671875 C-926.71702616 343.62002498 -926.25009249 345.35323271 -925.78282166 347.08634949 C-921.10855959 364.5577042 -916.96663972 382.15564761 -912.8727417 399.77017212 C-902.30781843 445.32883461 -902.30781843 445.32883461 -889.5625 490.3125 C-889.24535034 491.33555237 -888.92820068 492.35860474 -888.60144043 493.41265869 C-879.06390613 524.06626903 -868.69050764 554.28308119 -856.51312256 583.98986816 C-855.57100611 586.29171724 -854.63539785 588.59610801 -853.70166016 590.90136719 C-841.5492802 620.86822822 -828.28033613 650.34157711 -814.4375 679.5625 C-806.58707887 696.13614633 -799.07534803 712.8456666 -791.7277832 729.64794922 C-790.92290589 731.4883915 -790.11736252 733.32854259 -789.3112793 735.16845703 C-775.80901479 765.99109413 -762.7933726 796.96302046 -750.5625 828.3125 C-750.19080688 829.26342529 -749.81911377 830.21435059 -749.43615723 831.1940918 C-736.97777924 863.07952332 -725.2801399 895.20379628 -714.04992676 927.54077148 C-688.13247933 1002.15675855 -648.08865805 1067.53561588 -600.5625 1130.3125 C-602.37121245 1120.79766222 -604.18854603 1111.31025157 -606.71875 1101.95703125 C-615.57901908 1068.93315693 -620.51224294 1035.20315011 -625.7598877 1001.4631958 C-626.57316021 996.23737059 -627.39508001 991.0129232 -628.21777344 985.78857422 C-640.07310001 910.43297721 -649.73372908 835.10336325 -657.37871075 759.2108593 C-666.11084823 670.95104642 -666.11084823 670.95104642 -679.5625 583.3125 C-679.90547119 581.39824219 -679.90547119 581.39824219 -680.25537109 579.4453125 C-686.65484044 543.92172757 -695.5544172 508.97724834 -705.5625 474.3125 C-705.76512451 473.60925598 -705.96774902 472.90601196 -706.17651367 472.18145752 C-719.7278424 425.31294729 -738.22181339 379.5911869 -759.05859375 335.51953125 C-790.26204744 268.97917936 -790.26204744 268.97917936 -779.8203125 238.34765625 C-771.99599926 219.46724823 -758.79800478 206.62804597 -739.96630859 198.82177734 C-738.59114219 198.28068518 -737.21422685 197.7440246 -735.8359375 197.2109375 C-735.06551117 196.91238358 -734.29508484 196.61382965 -733.50131226 196.30622864 C-722.15381213 191.95577836 -710.6599332 188.00555711 -699.1875 184 C-694.3563257 182.30856122 -689.52582137 180.61521307 -684.6953125 178.921875 C-682.94948883 178.31036842 -682.94948883 178.31036842 -681.168396 177.68650818 C-672.78487579 174.74798921 -664.41887194 171.76473972 -656.0625 168.75 C-645.87439235 165.08399288 -635.61967146 161.64548632 -625.33886719 158.24926758 C-615.79077077 155.08742921 -606.29540272 151.78932336 -596.8125 148.4375 C-570.78248757 139.24237752 -544.67839858 130.26030685 -518.5625 121.3125 C-517.63959167 120.99613586 -516.71668335 120.67977173 -515.76580811 120.3538208 C-510.70216565 118.61929816 -505.63441883 116.89767189 -500.5625 115.1875 C-499.4391626 114.80440674 -498.3158252 114.42131348 -497.15844727 114.02661133 C-475.59666046 106.82234584 -452.97209111 106.57598374 -432.25 116.5625 C-408.85404757 128.98419803 -396.09642643 150.99213968 -388.52128601 175.56282043 C-387.92355967 177.53977842 -387.3356117 179.51942168 -386.75 181.5 C-386.43559464 182.5513916 -386.43559464 182.5513916 -386.11483765 183.62402344 C-376.0082221 217.46714264 -368.10112352 251.76573837 -362.2109375 286.5859375 C-362.06048729 287.47149826 -361.91003708 288.35705902 -361.75502777 289.26945496 C-358.75597521 306.93449267 -355.92215579 324.62275872 -353.194767 342.33160019 C-352.79981417 344.89483058 -352.40368791 347.4578778 -352.00741577 350.02090454 C-344.70317782 397.30285292 -337.81879265 444.64811857 -330.87214279 491.98358917 C-326.4885809 521.85240575 -322.07379597 551.71653946 -317.6361084 581.57736206 C-317.06420158 585.4260491 -316.49266156 589.2747905 -315.92114258 593.12353516 C-311.73282701 621.31898545 -307.48097286 649.50227064 -303.05621338 677.66159058 C-300.43957562 694.31901119 -297.84477608 710.97858522 -295.51953125 727.6796875 C-295.37932053 728.6806546 -295.2391098 729.6816217 -295.09465027 730.71292114 C-292.2959027 751.14161042 -290.01828498 771.62436624 -288.1328125 792.15625 C-287.97534924 793.85799472 -287.97534924 793.85799472 -287.8147049 795.59411812 C-285.2922659 823.00543782 -283.40594264 850.4577028 -281.56896973 877.92199707 C-280.88045736 888.19856022 -280.18105097 898.47438492 -279.48014069 908.75010872 C-279.23986421 912.29021849 -279.00329241 915.83056062 -278.76727295 919.37095642 C-278.62196615 921.52001607 -278.47656539 923.66906938 -278.33105469 925.81811523 C-278.26769928 926.78344681 -278.20434387 927.74877838 -278.1390686 928.74336243 C-277.80410819 933.64394907 -277.33350435 938.46076902 -276.5625 943.3125 C-257.03759463 887.53099906 -238.9913484 830.99107456 -225.09716797 773.52148438 C-224.53551511 771.20101175 -223.96903143 768.88174783 -223.40234375 766.5625 C-199.90817485 670.09207981 -186.63868799 572.26670438 -179.5625 473.3125 C-179.47708954 472.1356665 -179.47708954 472.1356665 -179.38995361 470.93505859 C-178.62616279 460.40090244 -178.0387999 449.86303883 -177.5625 439.3125 C-177.51867188 438.36048706 -177.47484375 437.40847412 -177.4296875 436.4276123 C-174.22523014 366.13261069 -175.13265709 295.97186623 -178.2387991 225.69626045 C-178.64013653 216.59765542 -179.01842103 207.49811521 -179.39453125 198.3984375 C-179.44473293 197.18444747 -179.44473293 197.18444747 -179.49594879 195.94593239 C-179.66196624 191.92955357 -179.82765679 187.91316142 -179.99310303 183.89675903 C-180.12160516 180.77943733 -180.25088783 177.66214959 -180.38092041 174.54489136 C-181.09921618 157.3244488 -181.80240054 140.10507977 -182.25 122.875 C-182.26887268 122.16510925 -182.28774536 121.45521851 -182.30718994 120.72381592 C-182.50431237 113.09405878 -182.60020375 105.46409186 -182.6328125 97.83203125 C-182.63846725 97.0993251 -182.64412201 96.36661896 -182.64994812 95.61170959 C-182.65967611 88.39379799 -181.82981824 81.42401191 -180.5625 74.3125 C-180.30533203 72.81009766 -180.30533203 72.81009766 -180.04296875 71.27734375 C-176.48662924 54.22985823 -165.72449262 36.48359293 -151.5625 26.3125 C-137.98696373 17.88900707 -121.51994806 15.50436569 -106.0625 12.4375 C-105.20810333 12.26708191 -104.35370667 12.09666382 -103.47341919 11.92108154 C-84.26137874 8.10717908 -64.96952213 4.95210247 -45.5625 2.3125 C-44.50530762 2.16554688 -43.44811523 2.01859375 -42.35888672 1.8671875 C-28.31316451 0.00466183 -14.14477205 0.0898255 0 0 Z " fill="#D77ED1" transform="translate(1750.5625,2.6875)"/>
</svg>
